<svg xmlns="http://www.w3.org/2000/svg" width="19.446" height="22.569"><g data-name="Group 163764"><path data-name="Path 83318" d="M9.723 9.722a4.867 4.867 0 10-3.436-1.426 4.857 4.857 0 003.436 1.426zm0-7.292a2.436 2.436 0 11-1.717.713 2.427 2.427 0 011.717-.713zm9.367 13.094a13.169 13.169 0 00-6.877-3.638l-2.49 3.077-2.49-3.077a13.169 13.169 0 00-6.877 3.638L0 15.88v6.689h19.446V15.88zm-2.075 4.614H2.431v-3.234a10.723 10.723 0 013.893-2.278l1.509 1.867 1.89 2.335 1.89-2.335 1.509-1.867a10.723 10.723 0 013.893 2.278z" fill="#fff"/></g></svg>