<svg xmlns="http://www.w3.org/2000/svg" width="20.446" height="23.571"><g data-name="Group 163767"><path data-name="Union 5" d="M.5 23.071v-6.689l.354-.354a13.183 13.183 0 016.877-3.638l2.491 3.077 2.488-3.077a13.169 13.169 0 016.877 3.638l.358.354v6.689zm17.016-2.431v-3.237a10.745 10.745 0 00-3.893-2.278l-1.512 1.867-.888 1.1v2.547zM2.931 17.407v3.233h6.292v-2.545l-.892-1.1-1.508-1.867a10.745 10.745 0 00-3.893 2.275zm11.132 2.594v-1h-1v-1h1v-1h1v1h1v1h-1v1zm-7.274-11.2a4.853 4.853 0 113.435 1.427 4.846 4.846 0 01-3.436-1.425zm1.718-5.153a2.429 2.429 0 104.1 2.193 2.469 2.469 0 00-.138-1.405 2.429 2.429 0 00-3.964-.788z" fill="#fff" stroke="rgba(0,0,0,0)" stroke-miterlimit="10"/></g></svg>