<svg xmlns="http://www.w3.org/2000/svg" width="93.057" height="19.75"><g data-name="Group 163771" fill="#fff"><path data-name="Path 83915" d="M0 13.125a1.893 1.893 0 01.191-.019h4.066c.063 0 .126.008.185.012.043.262.066.514.128.757a2.469 2.469 0 001.647 1.807 4.612 4.612 0 003.219-.028 1.764 1.764 0 001.154-2.105 1.236 1.236 0 00-.669-.886 13.93 13.93 0 00-1.639-.67c-1.288-.428-2.592-.808-3.879-1.238a6.635 6.635 0 01-2.247-1.253 4.764 4.764 0 01-1.609-4.2A5.142 5.142 0 013.996.732a9.171 9.171 0 016.9-.119 5.68 5.68 0 013.73 4.3c.1.427.144.866.217 1.317h-4.548c-.037-.237-.056-.476-.113-.705a2.1 2.1 0 00-1.579-1.619 3.955 3.955 0 00-2.531.1A1.621 1.621 0 004.95 5.943a1.3 1.3 0 00.714.953 10.661 10.661 0 001.431.56c1.309.411 2.632.777 3.937 1.2a7.143 7.143 0 012.292 1.222 4.406 4.406 0 011.707 3.126 6.167 6.167 0 01-.672 3.638 5.372 5.372 0 01-3.269 2.575 10.65 10.65 0 01-7.2-.206 5.831 5.831 0 01-3.756-4.7c-.051-.283-.086-.568-.128-.853z"/><path data-name="Path 83916" d="M56.8 11.844V1.315h4.117v17.14h-3.964a.336.336 0 01-.32-.164Q53.1 13.224 49.56 8.153c-.041-.059-.084-.116-.155-.212v10.5h-4.128V1.302h3.899a.386.386 0 01.373.182q3.532 5.094 7.076 10.183l.134.191z"/><path data-name="Path 83917" d="M92.98 7.912h-4.469a.27.27 0 01-.3-.21 5.248 5.248 0 00-2.788-3.054A5.482 5.482 0 0077.63 8.27a5.969 5.969 0 00.914 5.215 5.183 5.183 0 004.588 2.142 5.8 5.8 0 002.79-.739 5.173 5.173 0 002.45-3.145.331.331 0 01.39-.287c1.341.012 2.682.006 4.023.006h.275c-.058.294-.094.569-.167.835a9.422 9.422 0 01-7.664 7.177 10.76 10.76 0 01-6.072-.425 9.154 9.154 0 01-5.965-6.48 9.673 9.673 0 011.726-8.817A9.214 9.214 0 0180.232.401a11.175 11.175 0 017.076.52 9.283 9.283 0 015.547 6.349c.051.182.088.368.13.552a.512.512 0 01-.005.09z"/><path data-name="Path 83918" d="M34.817 1.303L27.491 9.55l7.426 8.893-5.225.015-6.938-8.908 7.2-8.251z"/><path data-name="Path 83919" d="M36.586 1.338h4.35v17.061h-4.35z"/><path data-name="Path 83920" d="M65.236 18.402V1.359h4.357v17.043z"/><path data-name="Rectangle 147748" d="M18.428 1.373h4.357v4.272h-4.357z"/><path data-name="Rectangle 147749" d="M18.428 14.187h4.357v4.272h-4.357z"/></g></svg>